<?xml version="1.0" encoding="utf-8"?>
<!-- Generator: Adobe Illustrator 23.0.1, SVG Export Plug-In . SVG Version: 6.00 Build 0)  -->
<svg version="1.1" id="Layer_1" xmlns="http://www.w3.org/2000/svg" xmlns:xlink="http://www.w3.org/1999/xlink" x="0px" y="0px"
	 viewBox="0 0 1000 350" style="enable-background:new 0 0 1000 350;" xml:space="preserve">
<style type="text/css">
	.st0{fill:#1B1B2D;}
	.st1{fill:url(#SVGID_1_);}
</style>
<g>
	<path class="st0" d="M419.58,192.91c-4.7-2.65-8.45-7.82-11.25-15.52l-3.75-9.75h-41.99l-12,28.49h-6.75l41.99-98.98h4.5
		l32.99,80.23c2.5,5.8,4.85,9.77,7.05,11.92c2.2,2.15,5.35,3.43,9.45,3.82v3c-1.8,0.5-3.8,0.75-6,0.75
		C429.03,196.88,424.28,195.56,419.58,192.91z M364.84,161.64h36.74l-18-43.49L364.84,161.64z"/>
	<path class="st0" d="M494.86,196.43c-5.3-1.5-9.62-3.65-12.97-6.45c-3.35-2.8-5.02-6-5.02-9.6v-16.05h2.7c1.7,10,5,17.22,9.9,21.67
		c4.9,4.45,11.65,6.67,20.25,6.67c5.4,0,10.02-1.35,13.87-4.05c3.85-2.7,5.77-6.45,5.77-11.25c0-4.2-1.3-7.85-3.9-10.95
		c-2.6-3.1-6.8-6.35-12.6-9.75l-18.45-10.95c-6.4-3.8-10.92-7.65-13.57-11.55c-2.65-3.9-3.97-8.65-3.97-14.25
		c0-7.7,2.67-13.87,8.02-18.52c5.35-4.65,12.37-6.97,21.07-6.97c5.1,0,10.15,0.73,15.15,2.18c5,1.45,9.12,3.55,12.37,6.3
		c3.25,2.75,4.87,5.92,4.87,9.52v16.05h-2.7c-1.7-9.99-4.93-17.17-9.67-21.52c-4.75-4.35-11.42-6.52-20.02-6.52
		c-4.6,0-8.65,1.4-12.15,4.2c-3.5,2.8-5.25,6.45-5.25,10.95c0,4.1,1.27,7.5,3.82,10.2c2.55,2.7,6.82,5.85,12.82,9.45l18.45,10.95
		c6.8,4.1,11.6,7.9,14.4,11.4c2.8,3.5,4.2,7.95,4.2,13.35c0,8.4-2.8,15.12-8.4,20.17c-5.6,5.05-13.2,7.57-22.79,7.57
		C505.56,198.68,500.16,197.93,494.86,196.43z"/>
	<path class="st0" d="M660.72,192.91c-4.7-2.65-8.45-7.82-11.25-15.52l-3.75-9.75h-41.99l-12,28.49h-6.75l41.99-98.98h4.5
		l32.99,80.23c2.5,5.8,4.85,9.77,7.05,11.92c2.2,2.15,5.35,3.43,9.45,3.82v3c-1.8,0.5-3.8,0.75-6,0.75
		C670.17,196.88,665.42,195.56,660.72,192.91z M605.98,161.64h36.74l-18-43.49L605.98,161.64z"/>
	<path class="st0" d="M732.4,117.4v78.73h-6v-80.98c0-4.8-1.03-8.5-3.07-11.1c-2.05-2.6-5.53-3.9-10.42-3.9h-1.5v-3h9.75
		c4.6,0,8.5,0.75,11.7,2.25c3.2,1.5,6.05,3.75,8.55,6.75l52.49,65.23V97.15h6v100.48h-3L732.4,117.4z"/>
	<path class="st0" d="M923.75,192.91c-4.7-2.65-8.45-7.82-11.25-15.52l-3.75-9.75h-41.99l-12,28.49h-6.75l41.99-98.98h4.5
		l32.99,80.23c2.5,5.8,4.85,9.77,7.05,11.92c2.2,2.15,5.35,3.43,9.45,3.82v3c-1.8,0.5-3.8,0.75-6,0.75
		C933.2,196.88,928.45,195.56,923.75,192.91z M869.02,161.64h36.74l-18-43.49L869.02,161.64z"/>
</g>
<g>
	<path class="st0" d="M343.85,233.37h3.11l8.7,25.32l8.7-25.43h2.2l8.7,25.43l8.7-25.32h3l-10.57,29.05h-2.37l-8.59-24.7l-8.65,24.7
		h-2.37L343.85,233.37z"/>
	<path class="st0" d="M391.61,247.84v-0.11c0-8.36,5.88-15.03,13.68-15.03c8.08,0,13.22,6.56,13.22,15.09c0,0.51,0,0.68-0.06,1.13
		h-23.91c0.51,7.18,5.65,11.36,11.3,11.36c4.46,0,7.52-1.98,9.89-4.52l1.92,1.7c-2.94,3.16-6.39,5.43-11.92,5.43
		C398.17,262.87,391.61,256.83,391.61,247.84z M415.52,246.43c-0.4-5.82-3.73-11.19-10.34-11.19c-5.71,0-10.12,4.8-10.62,11.19
		H415.52z"/>
	<path class="st0" d="M426.99,220.94h2.77v41.26h-2.77V220.94z"/>
	<path class="st0" d="M441.07,220.94h2.77v41.26h-2.77V220.94z"/>
	<path class="st0" d="M454.75,233.37h2.77v5.37c1.92-3.39,5.14-6.05,10.4-6.05c7.29,0,11.53,4.97,11.53,11.87v17.63h-2.77v-17.12
		c0-5.93-3.33-9.83-9.16-9.83c-5.65,0-10,4.3-10,10.29v16.67h-2.77V233.37z"/>
	<path class="st0" d="M487.42,247.84v-0.11c0-8.36,5.88-15.03,13.68-15.03c8.08,0,13.22,6.56,13.22,15.09c0,0.51,0,0.68-0.06,1.13
		h-23.91c0.51,7.18,5.65,11.36,11.3,11.36c4.46,0,7.52-1.98,9.89-4.52l1.92,1.7c-2.94,3.16-6.39,5.43-11.92,5.43
		C493.98,262.87,487.42,256.83,487.42,247.84z M511.33,246.43c-0.4-5.82-3.73-11.19-10.34-11.19c-5.71,0-10.12,4.8-10.62,11.19
		H511.33z"/>
	<path class="st0" d="M519.92,258.58l1.64-2.2c3.16,2.43,6.67,3.79,10.34,3.79c3.9,0,6.95-2.15,6.95-5.48v-0.11
		c0-3.39-3.62-4.63-7.63-5.76c-4.69-1.36-9.89-2.77-9.89-7.91v-0.11c0-4.63,3.9-7.97,9.49-7.97c3.45,0,7.35,1.24,10.23,3.17
		l-1.47,2.32c-2.66-1.75-5.82-2.88-8.87-2.88c-3.96,0-6.56,2.15-6.56,5.03v0.11c0,3.22,3.9,4.41,8.03,5.59
		c4.63,1.3,9.49,3,9.49,8.08v0.11c0,5.14-4.41,8.42-9.95,8.42C527.55,262.76,522.97,261.06,519.92,258.58z"/>
	<path class="st0" d="M547.45,258.58l1.64-2.2c3.16,2.43,6.67,3.79,10.34,3.79c3.9,0,6.95-2.15,6.95-5.48v-0.11
		c0-3.39-3.62-4.63-7.63-5.76c-4.69-1.36-9.89-2.77-9.89-7.91v-0.11c0-4.63,3.9-7.97,9.49-7.97c3.45,0,7.35,1.24,10.23,3.17
		l-1.47,2.32c-2.66-1.75-5.82-2.88-8.87-2.88c-3.96,0-6.56,2.15-6.56,5.03v0.11c0,3.22,3.9,4.41,8.03,5.59
		c4.63,1.3,9.49,3,9.49,8.08v0.11c0,5.14-4.41,8.42-9.95,8.42C555.08,262.76,550.5,261.06,547.45,258.58z"/>
	<path class="st0" d="M596.68,235.91h-4.18v-2.54h4.18v-2.83c0-3.28,0.9-5.88,2.54-7.52c1.47-1.47,3.5-2.26,6.05-2.26
		c1.75,0,3,0.23,4.3,0.68v2.6c-1.64-0.51-2.83-0.74-4.3-0.74c-3.96,0-5.82,2.37-5.82,7.29v2.77h10.06v2.54h-10.06v26.28h-2.77
		V235.91z"/>
	<path class="st0" d="M612.91,247.9v-0.11c0-8.08,6.27-15.09,14.86-15.09c8.53,0,14.75,6.9,14.75,14.98v0.11
		c0,8.08-6.27,15.09-14.86,15.09C619.12,262.87,612.91,255.98,612.91,247.9z M639.53,247.9v-0.11c0-6.95-5.2-12.49-11.87-12.49
		c-6.84,0-11.76,5.6-11.76,12.38v0.11c0,6.95,5.2,12.49,11.87,12.49C634.61,260.27,639.53,254.68,639.53,247.9z"/>
	<path class="st0" d="M650.5,251v-17.63h2.77v17.13c0,5.93,3.33,9.83,9.16,9.83c5.65,0,10-4.3,10-10.29v-16.67h2.77v28.82h-2.77
		v-5.37c-1.92,3.39-5.14,6.05-10.4,6.05C654.73,262.87,650.5,257.9,650.5,251z"/>
	<path class="st0" d="M685.71,233.37h2.77v5.37c1.92-3.39,5.14-6.05,10.4-6.05c7.29,0,11.53,4.97,11.53,11.87v17.63h-2.77v-17.12
		c0-5.93-3.33-9.83-9.16-9.83c-5.65,0-10,4.3-10,10.29v16.67h-2.77V233.37z"/>
	<path class="st0" d="M718.5,247.9v-0.11c0-9.38,7.06-15.09,14.02-15.09c5.76,0,9.49,3.28,11.87,6.9v-18.65h2.77v41.26h-2.77v-6.44
		c-2.49,3.79-6.16,7.12-11.87,7.12C725.56,262.87,718.5,257.28,718.5,247.9z M744.55,247.84v-0.11c0-7.4-5.76-12.38-11.76-12.38
		c-6.27,0-11.3,4.58-11.3,12.32v0.11c0,7.57,5.26,12.43,11.3,12.43C738.79,260.22,744.55,255.19,744.55,247.84z"/>
	<path class="st0" d="M755.29,253.83v-0.11c0-5.99,5.14-9.38,12.6-9.38c4.01,0,6.78,0.51,9.55,1.24v-1.24
		c0-5.82-3.56-8.82-9.49-8.82c-3.5,0-6.39,0.96-9.04,2.32l-1.02-2.43c3.17-1.47,6.27-2.49,10.23-2.49c3.9,0,7.01,1.07,9.1,3.17
		c1.92,1.92,2.94,4.58,2.94,8.14v17.97h-2.71v-4.8c-1.98,2.77-5.54,5.48-11.02,5.48C761.06,262.87,755.29,259.82,755.29,253.83z
		 M777.5,251.4v-3.28c-2.43-0.62-5.65-1.3-9.78-1.3c-6.1,0-9.49,2.71-9.49,6.73v0.11c0,4.18,3.96,6.61,8.36,6.61
		C772.47,260.27,777.5,256.66,777.5,251.4z"/>
	<path class="st0" d="M791.36,254.79v-18.88h-4.18v-2.54h4.18v-9.21h2.77v9.21h10.12v2.54h-10.12v18.59c0,4.13,2.43,5.6,5.76,5.6
		c1.41,0,2.6-0.28,4.24-1.02v2.6c-1.47,0.68-2.88,1.02-4.69,1.02C794.97,262.7,791.36,260.27,791.36,254.79z"/>
	<path class="st0" d="M812.5,222.07h3.45v3.79h-3.45V222.07z M812.84,233.37h2.77v28.82h-2.77V233.37z"/>
	<path class="st0" d="M824.54,247.9v-0.11c0-8.08,6.27-15.09,14.86-15.09c8.53,0,14.75,6.9,14.75,14.98v0.11
		c0,8.08-6.27,15.09-14.86,15.09C830.75,262.87,824.54,255.98,824.54,247.9z M851.16,247.9v-0.11c0-6.95-5.2-12.49-11.87-12.49
		c-6.84,0-11.76,5.6-11.76,12.38v0.11c0,6.95,5.2,12.49,11.87,12.49C846.24,260.27,851.16,254.68,851.16,247.9z"/>
	<path class="st0" d="M862.69,233.37h2.77v5.37c1.92-3.39,5.14-6.05,10.4-6.05c7.29,0,11.53,4.97,11.53,11.87v17.63h-2.77v-17.12
		c0-5.93-3.33-9.83-9.16-9.83c-5.65,0-10,4.3-10,10.29v16.67h-2.77V233.37z"/>
</g>
<linearGradient id="SVGID_1_" gradientUnits="userSpaceOnUse" x1="172.2103" y1="53.0754" x2="177.6908" y2="296.9566">
	<stop  offset="0" style="stop-color:#FBB040"/>
	<stop  offset="1" style="stop-color:#660591"/>
</linearGradient>
<path class="st1" d="M294.03,177.97c0-63.04-49.27-114.78-111.32-118.76c-0.68-3.53-3.78-6.2-7.51-6.2c-3.72,0-6.82,2.66-7.5,6.18
	C105.47,62.98,56,114.8,56,177.97c0,64.73,51.95,117.55,116.34,118.98c0.89,0.02,1.78,0.03,2.68,0.03c0.89,0,1.79-0.01,2.68-0.03
	C242.09,295.53,294.03,242.71,294.03,177.97z M167.86,93.3c0.9,3.22,3.85,5.58,7.36,5.58c3.5,0,6.44-2.35,7.35-5.55
	c51.72,3.87,92.62,47.19,92.62,99.88c0,55.23-44.93,100.17-100.17,100.17c-46.8,0-84.88-38.08-84.88-84.88
	c0-44.39,34.27-80.91,77.73-84.56c0.92,3.18,3.86,5.52,7.34,5.52c3.48,0,6.4-2.32,7.33-5.49c31.11,2.74,58.35,22.34,70.68,51.5
	c0.01,0.01,0.01,0.02,0.02,0.03c0,0.01,0.01,0.02,0.01,0.03c2.56,5.41,4.02,12.03,4.02,18.18c0,22.73-18.49,41.22-41.22,41.22
	c-5.63,0-11.04-1.13-15.99-3.2c-0.11-0.06-0.23-0.12-0.35-0.16c-10.68-4.59-19.16-13.61-22.9-25.22c-0.29-0.91-1.24-1.42-2.15-1.19
	c0,0,0,0-0.01,0c-0.04,0.01-0.08,0.01-0.12,0.03c-0.03,0.01-0.05,0.03-0.08,0.04c-0.48,0.16-0.9,0.51-1.11,1.02
	c-0.08,0.19-7.83,18.5-23.68,24.48c-3.38-1.2-6.8-2.03-10.28-2.3c-0.68-18.22,13.39-26.84,27-35.19c3.06-1.87,5.96-3.66,8.62-5.52
	c2.67,1.86,5.56,3.65,8.62,5.52c14,8.58,28.48,17.45,26.91,36.75c-0.08,1,0.66,1.87,1.66,1.95c0.05,0,0.1,0.01,0.15,0.01
	c0.93,0,1.72-0.72,1.8-1.66c1.75-21.52-14.39-31.4-28.63-40.13c-2.54-1.56-4.98-3.05-7.24-4.56c4.24-3.06,12.97-10.66,13-21.36
	c0.01-4.3-1.65-8.34-4.68-11.39c-3.03-3.05-7.06-4.73-11.36-4.75c-0.02,0-0.04,0-0.05,0c-4.28,0-8.3,1.66-11.34,4.68
	c-3.05,3.03-4.73,7.06-4.75,11.36c-0.03,9.82,8.7,17.96,12.86,21.28c-2.32,1.57-4.84,3.12-7.49,4.74
	c-13.81,8.46-29.41,18.02-28.74,38.23c-4.17,0.28-8.06,2.01-11.05,4.99c-3.29,3.27-5.11,7.62-5.12,12.25
	c-0.01,4.63,1.78,9,5.04,12.29c3.27,3.29,7.62,5.11,12.25,5.12c0.05,0,0.09,0,0.13,0c13.9,0,26.18-6.82,37.98-14.12
	c11.79,7.4,24.07,14.32,38.03,14.36c0.02,0,0.04,0,0.06,0c4.61,0,8.96-1.79,12.23-5.04c3.29-3.27,5.11-7.62,5.12-12.25
	c0.01-3.2-0.87-6.32-2.51-9.03c18.98-5.22,32.97-22.62,32.97-43.23c0-6.73-1.54-13.7-4.34-19.65c0,0,0-0.01,0-0.01
	c-12.88-30.45-41.35-50.89-73.84-53.71c-0.68-3.52-3.78-6.18-7.5-6.18c-3.72,0-6.81,2.65-7.5,6.16
	c-45.39,3.73-81.19,41.84-81.19,88.17c0,25.38,10.75,48.28,27.93,64.43c-24.04-18.31-39.59-47.23-39.59-79.72
	C74.85,140.38,115.95,96.98,167.86,93.3z M226.82,245.95c-0.02,7.56-6.18,13.69-13.73,13.69c-0.01,0-0.03,0-0.04,0
	c-12.4-0.04-23.72-6.11-34.62-12.87c0.18-0.11,0.36-0.23,0.54-0.34c6.96-4.36,13.54-8.47,20.18-11.18
	c5.25,2.13,10.97,3.29,16.91,3.29c2.77,0,5.47-0.27,8.1-0.75C225.89,240.15,226.83,243.01,226.82,245.95z M136.94,231.93
	c0.01,0,0.03,0,0.04,0c11.36,0.04,22.39,7.05,34.07,14.47c0.18,0.11,0.36,0.23,0.54,0.34c-10.91,6.67-22.23,12.66-34.58,12.66
	c-0.04,0-0.08,0-0.12,0c-3.67-0.01-7.11-1.45-9.7-4.05c-2.59-2.6-4-6.05-3.99-9.72c0.01-3.67,1.45-7.11,4.05-9.7
	C129.86,233.35,133.29,231.93,136.94,231.93z M154.33,232.61c10.82-5.45,17.52-15.68,20.51-21.22c4.06,9.5,11.16,17.1,19.95,21.82
	c-5.88,2.74-11.68,6.35-17.75,10.15c-0.67,0.42-1.35,0.85-2.03,1.27c-0.67-0.43-1.35-0.85-2.02-1.28
	C166.67,239.32,160.53,235.43,154.33,232.61z M175.21,183.31c-3.06-2.31-12.49-10.17-12.46-19.18c0.01-3.33,1.32-6.46,3.68-8.8
	c2.35-2.34,5.47-3.62,8.79-3.62c0.01,0,0.03,0,0.04,0c3.33,0.01,6.46,1.32,8.8,3.68c2.35,2.36,3.63,5.5,3.62,8.83
	C187.65,174.06,178.29,181.22,175.21,183.31z M245.7,269.13c20.35-18.96,33.1-45.98,33.1-75.92c0-54.64-42.45-99.55-96.1-103.5
	c-0.71-3.49-3.79-6.12-7.49-6.12c-3.69,0-6.77,2.62-7.49,6.1c-53.84,3.76-96.49,48.75-96.49,103.52c0,29.94,12.75,56.96,33.1,75.92
	C77.15,248,59.62,215,59.62,177.97c0-61.23,47.94-111.47,108.26-115.17c0.93,3.18,3.86,5.5,7.34,5.5c3.47,0,6.39-2.31,7.33-5.48
	c60.14,3.89,107.87,54.04,107.87,115.15C290.41,215,272.89,248,245.7,269.13z"/>
</svg>
