<?xml version="1.0" encoding="utf-8"?>
<!-- Generator: Adobe Illustrator 23.0.1, SVG Export Plug-In . SVG Version: 6.00 Build 0)  -->
<svg version="1.1" id="Layer_1" xmlns="http://www.w3.org/2000/svg" xmlns:xlink="http://www.w3.org/1999/xlink" x="0px" y="0px"
	 viewBox="0 0 1000 850" style="enable-background:new 0 0 1000 850;" xml:space="preserve">
<style type="text/css">
	.st0{fill:#1E1F35;}
	.st1{fill:url(#SVGID_1_);}
</style>
<g>
	<path class="st0" d="M176.65,681.07c-6.77-3.82-12.18-11.27-16.21-22.37l-5.4-14.05H94.52l-17.29,41.07H67.5l60.52-142.65h6.48
		l47.55,115.64c3.6,8.36,6.99,14.09,10.16,17.18c3.17,3.1,7.71,4.94,13.62,5.51v4.32c-2.59,0.72-5.48,1.08-8.65,1.08
		C190.27,686.8,183.42,684.89,176.65,681.07z M97.76,636h52.96l-25.94-62.68L97.76,636z"/>
	<path class="st0" d="M285.15,686.15c-7.64-2.16-13.87-5.26-18.7-9.29c-4.83-4.03-7.24-8.65-7.24-13.83v-23.13h3.89
		c2.45,14.41,7.2,24.82,14.27,31.23c7.06,6.41,16.79,9.62,29.18,9.62c7.78,0,14.45-1.95,19.99-5.84c5.54-3.89,8.32-9.29,8.32-16.21
		c0-6.05-1.87-11.31-5.62-15.78c-3.75-4.46-9.8-9.15-18.16-14.05l-26.59-15.78c-9.22-5.47-15.74-11.02-19.56-16.64
		c-3.82-5.62-5.73-12.46-5.73-20.53c0-11.09,3.85-19.99,11.56-26.69c7.71-6.7,17.83-10.05,30.37-10.05c7.35,0,14.62,1.05,21.83,3.13
		c7.2,2.09,13.15,5.12,17.83,9.08c4.68,3.96,7.02,8.54,7.02,13.73v23.13h-3.89c-2.45-14.41-7.1-24.75-13.94-31.02
		c-6.84-6.27-16.46-9.4-28.85-9.4c-6.63,0-12.46,2.02-17.51,6.05c-5.05,4.04-7.56,9.29-7.56,15.78c0,5.91,1.84,10.81,5.51,14.7
		c3.67,3.89,9.83,8.43,18.48,13.62l26.59,15.78c9.8,5.91,16.71,11.39,20.75,16.43c4.03,5.04,6.05,11.46,6.05,19.24
		c0,12.1-4.04,21.8-12.1,29.07c-8.07,7.27-19.02,10.91-32.85,10.91C300.57,689.39,292.79,688.31,285.15,686.15z"/>
	<path class="st0" d="M524.21,681.07c-6.77-3.82-12.18-11.27-16.21-22.37l-5.4-14.05h-60.52l-17.29,41.07h-9.73l60.52-142.65h6.48
		l47.55,115.64c3.6,8.36,6.99,14.09,10.16,17.18c3.17,3.1,7.71,4.94,13.62,5.51v4.32c-2.59,0.72-5.48,1.08-8.65,1.08
		C537.82,686.8,530.98,684.89,524.21,681.07z M445.32,636h52.96l-25.94-62.68L445.32,636z"/>
	<path class="st0" d="M627.52,572.24v113.47h-8.65V569c0-6.92-1.48-12.25-4.43-15.99c-2.95-3.74-7.96-5.62-15.02-5.62h-2.16v-4.32
		h14.05c6.63,0,12.25,1.08,16.86,3.24c4.61,2.16,8.72,5.4,12.32,9.73l75.65,94.02V543.06h8.65v144.82h-4.32L627.52,572.24z"/>
	<path class="st0" d="M903.32,681.07c-6.77-3.82-12.18-11.27-16.21-22.37l-5.4-14.05h-60.52l-17.29,41.07h-9.73l60.52-142.65h6.48
		l47.55,115.64c3.6,8.36,6.99,14.09,10.16,17.18c3.17,3.1,7.71,4.94,13.62,5.51v4.32c-2.59,0.72-5.48,1.08-8.65,1.08
		C916.94,686.8,910.09,684.89,903.32,681.07z M824.43,636h52.96l-25.94-62.68L824.43,636z"/>
</g>
<g>
	<path class="st0" d="M129.66,743.57h4.24l11.86,34.5l11.86-34.66h3l11.86,34.66l11.86-34.5h4.08l-14.4,39.58h-3.23l-11.71-33.65
		l-11.78,33.65h-3.23L129.66,743.57z"/>
	<path class="st0" d="M194.75,763.29v-0.15c0-11.4,8.01-20.49,18.64-20.49c11.01,0,18.02,8.93,18.02,20.56c0,0.69,0,0.92-0.08,1.54
		h-32.58c0.69,9.78,7.7,15.48,15.4,15.48c6.08,0,10.24-2.69,13.48-6.16l2.62,2.31c-4,4.31-8.7,7.39-16.25,7.39
		C203.68,783.77,194.75,775.53,194.75,763.29z M227.32,761.36c-0.54-7.93-5.08-15.25-14.09-15.25c-7.78,0-13.79,6.55-14.48,15.25
		H227.32z"/>
	<path class="st0" d="M242.97,726.63h3.77v56.22h-3.77V726.63z"/>
	<path class="st0" d="M262.15,726.63h3.77v56.22h-3.77V726.63z"/>
	<path class="st0" d="M280.79,743.57h3.77v7.32c2.62-4.62,7.01-8.24,14.17-8.24c9.93,0,15.71,6.78,15.71,16.17v24.03h-3.77v-23.33
		c0-8.09-4.54-13.4-12.48-13.4c-7.7,0-13.63,5.85-13.63,14.02v22.72h-3.77V743.57z"/>
	<path class="st0" d="M325.31,763.29v-0.15c0-11.4,8.01-20.49,18.64-20.49c11.01,0,18.02,8.93,18.02,20.56c0,0.69,0,0.92-0.08,1.54
		h-32.58c0.69,9.78,7.7,15.48,15.4,15.48c6.08,0,10.24-2.69,13.48-6.16l2.62,2.31c-4,4.31-8.7,7.39-16.25,7.39
		C334.24,783.77,325.31,775.53,325.31,763.29z M357.88,761.36c-0.54-7.93-5.08-15.25-14.09-15.25c-7.78,0-13.79,6.55-14.48,15.25
		H357.88z"/>
	<path class="st0" d="M369.6,777.92l2.23-3c4.31,3.31,9.09,5.16,14.09,5.16c5.31,0,9.47-2.93,9.47-7.47v-0.16
		c0-4.62-4.93-6.31-10.4-7.85c-6.39-1.85-13.48-3.77-13.48-10.78v-0.16c0-6.31,5.31-10.86,12.94-10.86c4.7,0,10.01,1.69,13.94,4.31
		l-2,3.16c-3.62-2.39-7.93-3.93-12.09-3.93c-5.39,0-8.93,2.93-8.93,6.85v0.15c0,4.39,5.31,6.01,10.94,7.62
		c6.31,1.77,12.94,4.08,12.94,11.01v0.15c0,7.01-6.01,11.48-13.55,11.48C380,783.62,373.76,781.31,369.6,777.92z"/>
	<path class="st0" d="M407.11,777.92l2.23-3c4.31,3.31,9.09,5.16,14.09,5.16c5.31,0,9.47-2.93,9.47-7.47v-0.16
		c0-4.62-4.93-6.31-10.4-7.85c-6.39-1.85-13.48-3.77-13.48-10.78v-0.16c0-6.31,5.31-10.86,12.94-10.86c4.7,0,10.01,1.69,13.94,4.31
		l-2,3.16c-3.62-2.39-7.93-3.93-12.09-3.93c-5.39,0-8.93,2.93-8.93,6.85v0.15c0,4.39,5.31,6.01,10.94,7.62
		c6.31,1.77,12.94,4.08,12.94,11.01v0.15c0,7.01-6.01,11.48-13.55,11.48C417.51,783.62,411.27,781.31,407.11,777.92z"/>
	<path class="st0" d="M474.2,747.04h-5.7v-3.47h5.7v-3.85c0-4.47,1.23-8.01,3.47-10.24c2-2,4.77-3.08,8.24-3.08
		c2.39,0,4.08,0.31,5.85,0.92v3.54c-2.23-0.69-3.85-1-5.85-1c-5.39,0-7.93,3.23-7.93,9.94v3.77h13.71v3.47h-13.71v35.81h-3.77
		V747.04z"/>
	<path class="st0" d="M496.31,763.37v-0.15c0-11.01,8.55-20.56,20.25-20.56c11.63,0,20.1,9.4,20.1,20.41v0.15
		c0,11.01-8.55,20.56-20.25,20.56C504.78,783.77,496.31,774.38,496.31,763.37z M532.58,763.37v-0.15c0-9.47-7.08-17.02-16.17-17.02
		c-9.32,0-16.02,7.63-16.02,16.87v0.15c0,9.47,7.08,17.02,16.17,17.02C525.88,780.23,532.58,772.61,532.58,763.37z"/>
	<path class="st0" d="M547.53,767.6v-24.03h3.77v23.34c0,8.08,4.54,13.4,12.48,13.4c7.7,0,13.63-5.85,13.63-14.02v-22.72h3.77v39.28
		h-3.77v-7.32c-2.62,4.62-7.01,8.24-14.17,8.24C553.3,783.77,547.53,777,547.53,767.6z"/>
	<path class="st0" d="M595.52,743.57h3.77v7.32c2.62-4.62,7.01-8.24,14.17-8.24c9.93,0,15.71,6.78,15.71,16.17v24.03h-3.77v-23.33
		c0-8.09-4.54-13.4-12.48-13.4c-7.7,0-13.63,5.85-13.63,14.02v22.72h-3.77V743.57z"/>
	<path class="st0" d="M640.19,763.37v-0.15c0-12.78,9.63-20.56,19.1-20.56c7.86,0,12.94,4.47,16.17,9.4v-25.41h3.77v56.22h-3.77
		v-8.78c-3.39,5.16-8.39,9.7-16.17,9.7C649.82,783.77,640.19,776.15,640.19,763.37z M675.69,763.29v-0.15
		c0-10.09-7.86-16.87-16.02-16.87c-8.55,0-15.4,6.24-15.4,16.79v0.15c0,10.32,7.16,16.94,15.4,16.94
		C667.84,780.16,675.69,773.3,675.69,763.29z"/>
	<path class="st0" d="M690.34,771.45v-0.15c0-8.16,7.01-12.78,17.17-12.78c5.47,0,9.24,0.69,13.02,1.69v-1.69
		c0-7.93-4.85-12.01-12.94-12.01c-4.78,0-8.7,1.31-12.32,3.16l-1.39-3.31c4.31-2,8.55-3.39,13.94-3.39c5.31,0,9.55,1.46,12.4,4.31
		c2.62,2.62,4,6.24,4,11.09v24.49h-3.7v-6.55c-2.69,3.77-7.55,7.47-15.02,7.47C698.19,783.77,690.34,779.62,690.34,771.45z
		 M720.6,768.14v-4.47c-3.31-0.85-7.7-1.77-13.32-1.77c-8.32,0-12.94,3.7-12.94,9.16v0.15c0,5.7,5.39,9.01,11.4,9.01
		C713.75,780.23,720.6,775.3,720.6,768.14z"/>
	<path class="st0" d="M739.48,772.76v-25.72h-5.7v-3.47h5.7v-12.55h3.77v12.55h13.78v3.47h-13.78v25.34c0,5.62,3.31,7.63,7.86,7.63
		c1.92,0,3.54-0.39,5.78-1.39v3.54c-2,0.92-3.93,1.39-6.39,1.39C744.41,783.54,739.48,780.23,739.48,772.76z"/>
	<path class="st0" d="M768.29,728.17h4.7v5.16h-4.7V728.17z M768.75,743.57h3.77v39.28h-3.77V743.57z"/>
	<path class="st0" d="M784.69,763.37v-0.15c0-11.01,8.55-20.56,20.25-20.56c11.63,0,20.1,9.4,20.1,20.41v0.15
		c0,11.01-8.55,20.56-20.25,20.56C793.16,783.77,784.69,774.38,784.69,763.37z M820.96,763.37v-0.15c0-9.47-7.08-17.02-16.17-17.02
		c-9.32,0-16.02,7.63-16.02,16.87v0.15c0,9.47,7.08,17.02,16.17,17.02C814.26,780.23,820.96,772.61,820.96,763.37z"/>
	<path class="st0" d="M836.68,743.57h3.77v7.32c2.62-4.62,7.01-8.24,14.17-8.24c9.93,0,15.71,6.78,15.71,16.17v24.03h-3.77v-23.33
		c0-8.09-4.54-13.4-12.48-13.4c-7.7,0-13.63,5.85-13.63,14.02v22.72h-3.77V743.57z"/>
</g>
<linearGradient id="SVGID_1_" gradientUnits="userSpaceOnUse" x1="495.5508" y1="66.329" x2="504.2385" y2="452.9272">
	<stop  offset="0" style="stop-color:#FBB040"/>
	<stop  offset="1" style="stop-color:#660591"/>
</linearGradient>
<path class="st1" d="M688.66,264.32c0-99.93-78.1-181.94-176.46-188.26c-1.07-5.6-5.99-9.83-11.9-9.83c-5.9,0-10.81,4.21-11.89,9.79
	c-98.65,6.01-177.08,88.16-177.08,188.3c0,102.61,82.35,186.35,184.42,188.61c1.41,0.04,2.82,0.05,4.24,0.05
	c1.42,0,2.83-0.02,4.24-0.05C606.32,450.66,688.66,366.93,688.66,264.32z M488.65,130.09c1.43,5.1,6.1,8.84,11.66,8.84
	c5.54,0,10.21-3.72,11.65-8.81c81.99,6.14,146.82,74.8,146.82,158.33c0,87.55-71.23,158.78-158.78,158.78
	c-74.19,0-134.55-60.36-134.55-134.55c0-70.37,54.32-128.26,123.22-134.04c1.46,5.05,6.11,8.74,11.64,8.74
	c5.51,0,10.15-3.68,11.63-8.71c49.31,4.35,92.49,35.41,112.04,81.63c0.01,0.02,0.02,0.04,0.03,0.05c0.01,0.02,0.01,0.04,0.02,0.05
	c4.05,8.57,6.37,19.07,6.37,28.81c0,36.03-29.31,65.34-65.34,65.34c-8.92,0-17.5-1.79-25.35-5.07c-0.18-0.1-0.36-0.18-0.56-0.25
	c-16.94-7.28-30.37-21.57-36.3-39.97c-0.46-1.44-1.96-2.25-3.41-1.89c0,0-0.01,0-0.01,0c-0.06,0.02-0.13,0.02-0.19,0.04
	c-0.05,0.02-0.09,0.04-0.13,0.06c-0.76,0.25-1.42,0.81-1.75,1.61c-0.12,0.3-12.42,29.33-37.54,38.8
	c-5.36-1.91-10.77-3.22-16.29-3.64c-1.07-28.88,21.22-42.55,42.8-55.78c4.85-2.97,9.44-5.8,13.67-8.75
	c4.23,2.95,8.82,5.78,13.67,8.75c22.2,13.6,45.15,27.66,42.66,58.25c-0.13,1.58,1.05,2.96,2.63,3.09c0.08,0.01,0.16,0.01,0.24,0.01
	c1.48,0,2.73-1.14,2.86-2.64c2.77-34.11-22.81-49.78-45.39-63.61c-4.03-2.47-7.9-4.84-11.47-7.23c6.72-4.85,20.56-16.91,20.61-33.85
	c0.02-6.81-2.61-13.22-7.41-18.05c-4.8-4.83-11.2-7.5-18.01-7.52c-0.03,0-0.06,0-0.08,0c-6.78,0-13.16,2.63-17.97,7.41
	c-4.83,4.8-7.5,11.2-7.53,18.01c-0.05,15.56,13.78,28.47,20.39,33.74c-3.68,2.49-7.68,4.94-11.87,7.51
	c-21.9,13.42-46.62,28.57-45.56,60.6c-6.61,0.44-12.77,3.19-17.52,7.9c-5.21,5.18-8.09,12.08-8.12,19.43
	c-0.02,7.35,2.82,14.26,8,19.48c5.18,5.21,12.08,8.09,19.42,8.12c0.07,0,0.14,0,0.21,0c22.03,0,41.51-10.81,60.21-22.38
	c18.69,11.73,38.16,22.69,60.28,22.76c0.03,0,0.06,0,0.09,0c7.31,0,14.2-2.84,19.39-7.99c5.21-5.18,8.1-12.08,8.12-19.43
	c0.02-5.08-1.39-10.02-3.98-14.31c30.09-8.27,52.26-35.85,52.26-68.53c0-10.67-2.44-21.72-6.87-31.14c0,0,0-0.01,0-0.01
	c-20.42-48.27-65.54-80.68-117.06-85.13c-1.08-5.58-5.99-9.8-11.89-9.8c-5.89,0-10.79,4.2-11.89,9.77
	c-71.95,5.91-128.71,66.32-128.71,139.77c0,40.23,17.05,76.53,44.27,102.14c-38.11-29.03-62.76-74.87-62.76-126.37
	C341.22,204.73,406.37,135.93,488.65,130.09z M582.12,372.07c-0.04,11.98-9.8,21.7-21.77,21.7c-0.02,0-0.05,0-0.07,0
	c-19.66-0.06-37.61-9.69-54.88-20.41c0.29-0.18,0.57-0.36,0.86-0.54c11.03-6.91,21.46-13.42,31.98-17.72
	c8.33,3.37,17.39,5.21,26.81,5.21c4.39,0,8.68-0.42,12.84-1.18C580.64,362.88,582.14,367.4,582.12,372.07z M439.65,349.85
	c0.02,0,0.05,0,0.07,0c18,0.06,35.5,11.17,54.01,22.93c0.29,0.18,0.57,0.36,0.86,0.54c-17.29,10.58-35.23,20.06-54.82,20.06
	c-0.06,0-0.13,0-0.19,0c-5.82-0.02-11.27-2.3-15.37-6.42c-4.1-4.12-6.35-9.6-6.33-15.41c0.02-5.81,2.3-11.27,6.42-15.37
	C428.41,352.1,433.86,349.85,439.65,349.85z M467.21,350.92c17.15-8.64,27.77-24.85,32.52-33.64c6.44,15.06,17.7,27.11,31.62,34.58
	c-9.33,4.34-18.51,10.07-28.13,16.09c-1.07,0.67-2.14,1.34-3.21,2.01c-1.07-0.68-2.14-1.35-3.2-2.03
	C486.77,361.57,477.03,355.4,467.21,350.92z M500.3,272.78c-4.86-3.67-19.8-16.12-19.75-30.41c0.02-5.28,2.09-10.24,5.83-13.95
	c3.73-3.71,8.67-5.74,13.93-5.74c0.02,0,0.04,0,0.06,0c5.28,0.02,10.24,2.09,13.96,5.83c3.72,3.74,5.76,8.71,5.74,13.99
	C520.02,258.11,505.19,269.46,500.3,272.78z M612.04,408.81c32.26-30.06,52.48-72.88,52.48-120.35
	c0-86.62-67.28-157.81-152.33-164.07c-1.12-5.54-6.01-9.71-11.88-9.71c-5.85,0-10.74,4.15-11.87,9.67
	c-85.34,5.96-152.96,77.28-152.96,164.11c0,47.47,20.21,90.29,52.48,120.35c-43.1-33.5-70.89-85.81-70.89-144.5
	c0-97.06,75.99-176.7,171.61-182.57c1.47,5.04,6.12,8.72,11.63,8.72c5.5,0,10.14-3.66,11.62-8.68c95.33,6.17,171,85.67,171,182.53
	C682.93,323,655.14,375.32,612.04,408.81z"/>
</svg>
